<svg width="16" height="16" viewBox="0 0 16 16" fill="none" xmlns="http://www.w3.org/2000/svg">
<rect x="1" y="1" width="14" height="14" rx="7" fill="#C897F1"/>
<path d="M8.66667 4L8.66667 5.33333H12V6.66667H10.6295C10.567 7.22572 10.4261 7.77434 10.2099 8.2961C9.93738 8.95412 9.55008 9.55779 9.06667 10.0792C9.22207 10.1656 9.38258 10.2431 9.54748 10.3114C10.1137 10.546 10.7205 10.6667 11.3333 10.6667V12C10.5454 12 9.76519 11.8448 9.03723 11.5433C8.67329 11.3925 8.32597 11.2067 8 10.9889C7.67403 11.2067 7.32671 11.3925 6.96277 11.5433C6.23481 11.8448 5.4546 12 4.66667 12L4.66667 10.6667C5.2795 10.6667 5.88634 10.546 6.45252 10.3114C6.61742 10.2431 6.77794 10.1656 6.93333 10.0792C6.44992 9.55779 6.06262 8.95412 5.79006 8.2961C5.66063 7.98363 5.55816 7.66154 5.48336 7.33333H6.8612C6.90688 7.48655 6.96048 7.63759 7.0219 7.78586C7.25034 8.33737 7.58242 8.8398 8 9.26599C8.41758 8.8398 8.74966 8.33737 8.9781 7.78586C9.12707 7.42623 9.23011 7.05021 9.28547 6.66667H4V5.33333H7.33333V4H8.66667Z" fill="#0F1020"/>
<rect x="1" y="1" width="14" height="14" rx="7" stroke="#0F1020" stroke-width="2"/>
</svg>
